<?xml version="1.0" encoding="UTF-8" standalone="no"?>
<svg
   version="1.1"
   id="Layer_1"
   x="0"
   y="0"
   viewBox="0 0 1959.5 354"
   xml:space="preserve"
   sodipodi:docname="goldman-logo.svg"
   width="1959.5"
   height="354"
   inkscape:version="1.1 (c68e22c387, 2021-05-23)"
   xmlns:inkscape="http://www.inkscape.org/namespaces/inkscape"
   xmlns:sodipodi="http://sodipodi.sourceforge.net/DTD/sodipodi-0.dtd"
   xmlns="http://www.w3.org/2000/svg"
   xmlns:svg="http://www.w3.org/2000/svg"><defs
   id="defs62" /><sodipodi:namedview
   id="namedview60"
   pagecolor="#ffffff"
   bordercolor="#999999"
   borderopacity="1"
   inkscape:pageshadow="0"
   inkscape:pageopacity="0"
   inkscape:pagecheckerboard="0"
   showgrid="false"
   inkscape:zoom="0.75567573"
   inkscape:cx="1276.3411"
   inkscape:cy="350.01786"
   inkscape:window-width="1920"
   inkscape:window-height="1017"
   inkscape:window-x="-8"
   inkscape:window-y="-8"
   inkscape:window-maximized="1"
   inkscape:current-layer="Layer_1"
   fit-margin-top="0"
   fit-margin-left="0"
   fit-margin-right="0"
   fit-margin-bottom="0" />
  <style
   id="style49">
    .st0{fill:#003262}.st1{fill:#c4820e}
  </style>
  <path
   class="st0"
   d="m 464.5,179.9 c -9,0 -17.4,-12.9 -26.3,-23.7 -18.4,-22.1 -23.1,-27.1 -23.1,-29.4 0,-1.8 16.3,-13.4 29.4,-26.3 8.2,-7.9 17.1,-19.2 17.1,-21.5 0,-0.8 -1,-1.1 -3.1,-1.1 -3.2,0 -18.4,0.8 -21.8,0.8 -3.2,0 -8.1,-0.8 -10.8,-0.8 -3.4,0 -4.7,0.5 -4.7,2.6 0,2.4 1.3,2.9 5.3,2.9 11.6,0 12.4,0.5 12.4,4.7 0,5.5 -2.4,10 -12.6,19.7 -8.4,7.9 -35.8,32.1 -42.3,32.1 -0.8,0 -1.1,-0.8 -1.1,-1.8 0,-42.8 1.6,-72.3 1.6,-112.2 0,-8.4 0.5,-19.5 0.5,-22.9 0,-1.6 -0.5,-2.4 -1.8,-2.4 -2.4,0 -17.9,5.8 -36.8,5.8 -2.9,0 -3.4,1.1 -3.4,3.7 0,1.8 1,2.6 11.8,2.6 7.1,0 9.2,2.4 9.2,21 0,55.5 -0.8,133.3 -0.8,140.9 0,3.9 -2.4,3.9 -11.3,3.9 -6.3,0 -7.6,1.3 -7.6,3.4 0,2.4 1.6,2.6 7.6,2.6 3.7,0 13.4,-0.5 22.3,-0.5 8.4,0 20.5,0.5 24.4,0.5 5.8,0 7.1,0 7.1,-2.6 0,-2.1 -1,-3.4 -7.1,-3.4 -16.3,0 -15.8,0 -15.8,-12.4 v -16.6 c 0,-2.4 3.7,-4.2 7.9,-6.8 4.5,-2.9 8.1,-5.5 9.2,-5.5 1.6,0 12.6,16.6 23.7,29.2 11.1,12.6 13.4,19.2 18.2,19.2 3.7,0 11.6,-0.3 14.7,-0.3 2.4,0 5.8,0.3 8.9,0.3 5.8,0 7.6,-0.5 7.6,-2.4 -0.1,-2 -2.2,-3.3 -8.5,-3.3 m 103.6,-1.3 c -6.3,0 -6.6,1.6 -6.6,3.4 0,2.1 0.5,2.6 6.6,2.6 3.7,0 17.6,-0.5 26.5,-0.5 4.7,0 10.5,0.5 14.5,0.5 9.5,0 11.3,0 11.3,-2.6 0,-2.1 0.5,-3.7 -12.6,-3.7 -4.7,0 -6.6,-2.9 -6.6,-24.7 0,-7.6 1.3,-28.4 1.3,-128.5 0,-7.9 1.3,-17.4 1.3,-20.5 0,-2.9 -1.3,-4.2 -2.6,-4.2 -1.6,0 -11.6,4.5 -32.1,5.8 -4.5,0.3 -6.6,0 -6.6,3.2 0,2.9 2.6,3.4 7.4,3.4 11.8,0 13.4,0 13.4,16.6 v 144.8 c 0,4.6 -4.4,4.4 -15.2,4.4 m 94.2,-97.8 c 12.1,0 27.6,19.4 27.6,26 0,1.6 -0.3,2.1 -3.2,2.6 -19.7,3.2 -33.9,6.6 -47.6,6.6 -3.1,0 -3.1,-0.2 -3.1,-1.6 0.1,-3.7 6.4,-33.6 26.3,-33.6 m 7.4,108 c 21.3,0 43.6,-16.6 43.6,-17.9 0,-0.5 -0.8,-2.1 -2.1,-2.1 -1.6,0 -11,6.3 -28.4,6.3 -20,0 -48.1,-9.7 -48.1,-46 0,-6 0.8,-7.4 5,-7.6 30,-1.8 56.2,-7.6 63.1,-9.2 7.1,-1.6 10.8,-2.6 10.8,-3.7 0,-2.1 -4.2,-8.4 -8.7,-13.7 -9.5,-11 -26.3,-19.7 -40,-19.7 -23.9,0 -48.9,22.1 -48.9,59.1 0.1,44 32.2,54.5 53.7,54.5 m -159,-108 c 12.1,0 27.6,19.4 27.6,26 0,1.6 -0.3,2.1 -3.2,2.6 -19.7,3.2 -33.9,6.6 -47.6,6.6 -3.2,0 -3.2,-0.2 -3.2,-1.6 0.2,-3.7 6.5,-33.6 26.4,-33.6 m 7.4,108 c 21.3,0 43.7,-16.6 43.7,-17.9 0,-0.5 -0.8,-2.1 -2.1,-2.1 -1.6,0 -11.1,6.3 -28.4,6.3 -20,0 -48.1,-9.7 -48.1,-46 0,-6 0.8,-7.4 5,-7.6 29.9,-1.8 56.2,-7.6 63.1,-9.2 7.1,-1.6 10.8,-2.6 10.8,-3.7 0,-2.1 -4.2,-8.4 -8.7,-13.7 -9.5,-11 -26.3,-19.7 -40,-19.7 -23.9,0 -48.9,22.1 -48.9,59.1 0,44 32.1,54.5 53.6,54.5 M 327.3,182 c 0,-2.4 -0.3,-3.1 -7.1,-3.1 -19.4,0 -20.2,0 -20.2,-12.9 v -54.1 c 0,-11 5.8,-17.4 21,-17.4 13.1,0 16.3,10.8 20,10.8 1.6,0 5.8,-11.6 5.8,-14.2 0,-6.8 -12.1,-12.6 -16.8,-12.6 -12.3,0 -24.7,13.7 -28.7,13.7 -1,0 -1.3,-1.8 -1.3,-4.2 0,-0.8 0.5,-6.6 0.5,-7.9 0,-2.1 -1.1,-2.9 -2.1,-2.9 -4.2,0 -9.2,1.3 -13.4,1.3 -5.3,0 -10.3,-0.5 -19.2,-0.5 -4.5,0 -4.2,0.8 -4.2,3.9 0,2.9 0,2.6 4.8,2.6 14.7,0 14.2,0.5 14.2,18.4 v 72 c 0,3.7 -0.8,4 -11.6,4 -6.3,0 -6.6,0.5 -6.6,3.1 0,2.6 0.5,2.6 6.6,2.6 3.7,0 12.6,-1.3 21.6,-1.3 8.4,0 26,1.3 29.7,1.3 6.7,0 7,0.3 7,-2.6 M 204.3,80.8 c 12.1,0 27.6,19.4 27.6,26 0,1.6 -0.2,2.1 -3.1,2.6 -19.7,3.2 -33.9,6.6 -47.6,6.6 -3.1,0 -3.1,-0.2 -3.1,-1.6 -0.1,-3.7 6.2,-33.6 26.2,-33.6 m 7.3,108 c 21.3,0 43.6,-16.6 43.6,-17.9 0,-0.5 -0.8,-2.1 -2.1,-2.1 -1.6,0 -11,6.3 -28.4,6.3 -20,0 -48.1,-9.7 -48.1,-46 0,-6 0.8,-7.4 5,-7.6 30,-1.8 56.3,-7.6 63.1,-9.2 7.1,-1.6 10.8,-2.6 10.8,-3.7 0,-2.1 -4.2,-8.4 -8.7,-13.7 -9.5,-11 -26.3,-19.7 -40,-19.7 -23.9,0 -48.9,22.1 -48.9,59.1 0.1,44 32.2,54.5 53.7,54.5 M 79.8,181.9 c -9.7,0 -19.3,-2.1 -22.7,-5.7 -2.7,-3 -3.6,-19.9 -3.6,-22.7 V 99.4 c 0,-6.6 2.4,-7.9 10.9,-7.9 32.9,0 55.3,21.1 55.3,48.4 0,26.3 -16.9,42 -39.9,42 M 53.5,16 c 0,-6 0.9,-8.8 20.8,-8.8 27.5,0 40.2,29 40.2,44.1 0,23.9 -10,29.6 -18.7,36.3 0,0 -12.7,-1.8 -31.1,-1.8 -7.3,0 -11.2,0.6 -11.2,-4.2 z m 62.9,77.7 c -6.1,-3 -11.8,-4.5 -11.8,-5.1 0,-0.9 6.6,-4.2 12.4,-8.2 9.7,-6.7 22.7,-17.2 22.7,-38.7 C 139.7,20.3 122.7,0 83.4,0 56.2,0 41.7,1.8 35.4,1.8 24.8,1.8 15.4,1.5 6.1,1.5 1,1.5 0,1.8 0,3.9 c 0,3.6 1.2,3.9 14.8,3.9 8.5,0 13.3,2.7 13.3,26.6 v 139 c 0,4.5 -0.6,5.1 -14.2,5.1 -6.6,0 -8.5,0.6 -8.5,3.6 0,3 2.1,3.3 5.1,3.3 9.7,0 16.3,-1.2 29,-1.2 13.3,0 26,3 38.7,3 42,0 70.1,-16 70.1,-49.9 0.1,-26.1 -17.7,-36.4 -31.9,-43.6 M 823.2,77.4 c -3.7,0 -10.8,1.1 -14.7,1.1 -7.1,0 -11.8,-0.5 -18.9,-0.5 -4.7,0 -5.5,0 -5.5,3.4 0,2.6 1.1,2.6 9.2,2.6 8.9,0 8.9,1.6 8.9,9.5 0,3.7 -9.5,31 -15.8,49.9 -4.2,12.4 -5.8,16 -7.6,16 -1.1,0 -4.2,-4.5 -6.3,-10 -15.8,-40.5 -22.6,-49.7 -22.6,-57.3 0,-6 1.6,-7.6 7.9,-7.6 5.5,0 6.6,-0.3 6.6,-2.6 0,-2.9 -1.1,-3.9 -6.6,-3.9 -8.4,0 -17.6,0.8 -25,0.8 -6.3,0 -8.1,-0.5 -15.5,-0.5 -4.7,0 -5.5,1.3 -5.5,3.7 0,2.4 0.3,2.6 5.5,2.6 4.7,0 6.6,1.3 13.1,17.1 14.5,34.2 35.5,82.8 35.5,85.7 0,7.9 -22.6,38.9 -32.1,50.7 -9,11.3 -21.3,12.9 -21.3,14.5 0,1.3 2.6,2.6 7.1,2.6 5.8,0 7.6,-2.1 15.5,-3.2 5.8,-0.8 8.9,-1 11.9,-6.8 8.4,-17.3 20.2,-38.6 36.8,-78.9 20.8,-50.4 32.3,-82 38.1,-82 3.1,0 6.8,-1.3 6.8,-3.7 0,-3 -1.3,-3.2 -5.5,-3.2"
   id="path51" />
  <path
   class="st1"
   d="m 932.6,137.3 -19.8,0.2 v 51.3 H 897.9 V 43.1 h 36.6 c 38.5,0 56.9,18.6 56.9,45.5 -0.1,31.9 -22.7,48.2 -58.8,48.7 z M 934,56.9 h -21.2 v 66.9 l 20.7,-0.5 c 27.5,-0.5 42.4,-11.4 42.4,-34 0,-20.8 -14.6,-32.4 -41.9,-32.4 z m 90.2,25.2 v 69 c 0,18.6 7.5,27 23.1,27 12.4,0 24.2,-6.3 32.9,-15.2 V 82.1 h 14.5 v 106.8 l -14.5,3 v -17.2 c -11,11.2 -24.9,17.2 -36.8,17.2 -20.7,0 -33.6,-13.3 -33.6,-36.6 V 82.1 Z m 138.6,109.7 c -8.6,0 -19.1,-2.6 -26.1,-5.8 l -14.5,6.3 V 31.7 l 14.5,-3 v 64.6 c 7.2,-6.8 18.4,-13.5 32.2,-13.5 28.2,0 46.6,22.4 46.6,54.3 0,33.5 -21.9,57.7 -52.7,57.7 z m 3.3,-98.8 c -11.7,0 -21.7,4.9 -29.4,11.9 v 65.5 c 6.5,5.1 16.5,8.4 26.8,8.4 22.8,0 37.1,-18.4 37.1,-44.1 0,-24.2 -13.3,-41.7 -34.5,-41.7 z m 70.7,95.8 V 31.7 l 14.5,-3 V 188.8 Z M 1286,57.6 c -6.5,0 -9.8,-5.1 -9.8,-10.7 0,-5.4 3.3,-10.3 9.8,-10.3 6.5,0 9.8,4.9 9.8,10.3 0,5.5 -3.2,10.7 -9.8,10.7 z m -7.2,131.2 V 82.1 l 14.5,-3 v 109.8 h -14.5 z m 87.5,3 c -32.2,0 -52.2,-23.1 -52.2,-56.2 0,-33.3 22.1,-56.6 52.4,-56.6 13.1,0 24.2,3.3 33.3,9.1 l -3.7,13.1 c -8.2,-5.4 -18.4,-8.6 -29.6,-8.6 -23.1,0 -37.5,17.2 -37.5,42.7 0,26.1 15.2,43.1 37.8,43.1 10.7,0 21.4,-3.5 29.6,-8.9 l 3,13.3 c -9.1,5.5 -20.8,9 -33.1,9 z m 129.3,-54.5 -19.8,0.2 v 51.3 h -14.9 V 43.1 h 36.6 c 38.5,0 56.9,18.6 56.9,45.5 0,31.9 -22.6,48.2 -58.8,48.7 z m 1.4,-80.4 h -21.2 v 66.9 l 20.7,-0.5 c 27.5,-0.5 42.4,-11.4 42.4,-34 0.1,-20.8 -14.6,-32.4 -41.9,-32.4 z m 117.1,134.9 c -29.6,0 -51.5,-21.9 -51.5,-56.2 0,-34 22.8,-56.6 52.7,-56.6 29.8,0 51.3,21.9 51.3,56.2 0,34 -22.9,56.6 -52.5,56.6 z m 0.5,-99.7 c -22.6,0 -37.5,17.9 -37.5,43.1 0,26.1 15.2,43.6 37.8,43.6 22.6,0 37.5,-17.9 37.5,-43.1 -0.1,-26.1 -15.2,-43.6 -37.8,-43.6 z m 73.7,96.7 V 31.7 l 14.5,-3 v 160.1 z m 49.2,-131.2 c -6.5,0 -9.8,-5.1 -9.8,-10.7 0,-5.4 3.3,-10.3 9.8,-10.3 6.5,0 9.8,4.9 9.8,10.3 0,5.5 -3.3,10.7 -9.8,10.7 z m -7.2,131.2 V 82.1 l 14.5,-3 v 109.8 h -14.5 z m 87.4,3 c -32.2,0 -52.2,-23.1 -52.2,-56.2 0,-33.3 22.1,-56.6 52.4,-56.6 13.1,0 24.2,3.3 33.3,9.1 l -3.7,13.1 c -8.2,-5.4 -18.4,-8.6 -29.6,-8.6 -23.1,0 -37.5,17.2 -37.5,42.7 0,26.1 15.2,43.1 37.8,43.1 10.7,0 21.4,-3.5 29.6,-8.9 l 3,13.3 c -9.1,5.5 -20.7,9 -33.1,9 z m 100.2,-4.2 -8.6,23.1 c -9.8,26.1 -20,33.6 -34.5,33.6 -8.2,0 -14.2,-2.1 -20.7,-4.9 l 4.4,-13.3 c 5.1,2.8 10.5,4.7 16.3,4.7 8.2,0 14.2,-4.4 21.9,-24.7 l 7.2,-18.9 -41.7,-105.1 h 15.6 l 33.6,88.1 32.9,-88.1 h 15.2 z"
   id="path53" />
  <path
   class="st0"
   d="m 42.7,288.7 v 63.5 H 32.9 V 288.7 H 7.4 v -9.3 h 60.8 v 9.3 z m 68.4,63.6 v -33.6 c 0,-9.2 -3.5,-12.4 -10.5,-12.4 -6.2,0 -11.5,2.9 -14.6,5.8 v 40.1 h -9.6 v -78.6 l 9.6,-1.5 v 32.8 c 4.9,-4.9 11.2,-7.8 17.9,-7.8 10.3,0 16.7,6.9 16.7,18.4 v 36.7 h -9.5 z m 29.4,-25.1 c 0.3,10.5 7.3,17.9 17.6,17.9 5.6,0 11.7,-1.5 16,-4.4 l 1.7,8.9 c -4.8,2.9 -11.2,4.4 -17.9,4.4 -16.1,0 -27,-11.5 -27,-27.9 0,-17.2 11.4,-29 26.3,-29 12.9,0 20.4,8.2 20.4,20.9 0,2.9 -0.5,6.2 -1.2,8.5 l -35.9,0.2 z m 27.8,-7.7 v -0.8 c 0,-7.9 -3.7,-13.2 -12.1,-13.2 -9.1,0 -14.5,7.2 -15.3,14.2 z m 82.1,34.5 c -21.3,0 -36.5,-14.8 -36.5,-38 0,-23.2 15.3,-38.3 36.5,-38.3 8.5,0 18.2,2.4 24.2,6.3 l -3.3,9.1 c -5.8,-3.7 -13.5,-6.5 -21,-6.5 -15.9,0 -26.5,11 -26.5,29 0,18.1 10.7,29.6 26.7,29.6 6.1,0 11.5,-1.6 15.9,-3.7 V 324.2 H 246 V 315 h 30 v 32 c -7.6,4.7 -17.8,7 -25.6,7 z m 62.5,0 c -15.2,0 -25.8,-11.2 -25.8,-28.4 0,-17.1 11,-28.6 26.3,-28.6 15.3,0 25.6,11.3 25.6,28.6 0.1,17.1 -11.1,28.4 -26.1,28.4 z m 0.1,-48.4 c -10.6,0 -16.4,8.3 -16.4,19.8 0,11.4 6.2,19.9 16.7,19.9 10.6,0 16.4,-8.2 16.4,-19.7 0,-11.3 -6.2,-20 -16.7,-20 z m 37.4,46.7 v -78.6 l 9.6,-1.5 v 80.1 z m 59.3,-78.6 9.6,-1.5 v 80.1 h -9.6 v -4.9 c -3.8,3.6 -8.6,6.6 -14.9,6.6 -15,0 -23.8,-12.1 -23.8,-28.2 0,-16.2 11.2,-28.7 27.2,-28.7 3.8,0 8.2,0.7 11.5,1.7 z m -11.9,32 c -10.8,0 -16.9,8.9 -16.9,19.8 0,11.8 5.9,19.6 15.9,19.6 5,0 9.3,-2 12.9,-5.1 v -30.4 c -3.1,-2.6 -7.2,-3.9 -11.9,-3.9 z m 102.4,46.6 V 319 c 0,-9.3 -3.4,-12.7 -10.3,-12.7 -5.9,0 -10.5,3.1 -13.5,6.1 v 40 h -9.6 v -33.3 c 0,-9.3 -3.4,-12.7 -10.3,-12.7 -5.9,0 -10.5,2.6 -13.5,5.5 v 40.6 h -9.6 v -53.6 l 9.6,-1.5 v 7.3 c 5.1,-4.9 10.7,-7.3 17.1,-7.3 6.2,0 11.3,2.9 14,8.9 5.7,-5.7 12,-8.9 19.3,-8.9 9.8,0 16.2,6.9 16.2,18.6 v 36.5 h -9.4 z m 51.9,-5.8 c -4.1,4.8 -9,7.5 -14.7,7.5 -10,0 -17,-6.6 -17,-15.3 0,-9.6 6.9,-17.9 31.8,-19.1 v -1.5 c 0,-8.6 -3.4,-12.1 -12,-12.1 -5.5,0 -12.2,2.6 -17.2,5.9 l -1.9,-8.6 c 4.7,-3.3 12.5,-6.2 20,-6.2 14.5,0 20.9,6.2 20.6,20.7 v 22.4 c 0,4.4 0.6,5.2 5.2,5.2 l -0.6,8 c -8.6,0.7 -12.5,-2.3 -13.9,-7 h -0.3 z m 0.2,-20.8 c -15.9,2.1 -21.7,5.4 -21.7,11.9 0,4.8 3.6,8.3 9.4,8.3 4.9,0 9.2,-2.4 12.2,-5.7 v -14.5 z m 58.5,26.6 v -33.6 c 0,-9.2 -3.5,-12.4 -11.1,-12.4 -5.6,0 -11,2.9 -14,5.8 v 40.1 h -9.6 v -53.6 l 9.6,-1.5 v 8 c 4.9,-4.9 11.2,-8 17.4,-8 10.8,0 17.3,6.9 17.3,18.4 v 36.7 h -9.6 z m 88.6,-19.4 c 0,-7.5 -5.6,-10.3 -17.5,-13.4 -10.4,-2.8 -21.8,-7.2 -21.8,-21.3 0,-12.2 9.9,-20.5 24.4,-20.5 8.4,0 16,2.1 23,6.4 l -3.5,8.6 c -5.6,-3.7 -12.8,-6.1 -19.3,-6.1 -10.5,0 -14.8,4.8 -14.8,10.8 0,7.3 6.2,9.9 17.7,13.1 10.6,2.8 21.4,7.9 21.4,21.7 0,12.6 -10.4,21.8 -25.6,21.8 -8.5,0 -17.4,-2.4 -24.4,-6.9 l 3.3,-9 c 6.2,4.1 12.8,7 21.3,7 9.2,0 15.8,-5 15.8,-12.2 z m 44.4,21.1 c -16.9,0 -26.2,-11.5 -26.2,-28.4 0,-17 11.3,-28.4 26.9,-28.4 6.9,0 12.4,1.5 17.3,4.5 l -2.4,8.7 c -4.4,-3 -9.4,-4.4 -14.8,-4.4 -11,0 -17,7.5 -17,19.5 0,12.4 6.8,19.7 16.8,19.7 5.6,0 11.1,-1.5 15.4,-4.4 l 1.7,8.9 c -4.9,2.8 -11,4.3 -17.7,4.3 z m 62.1,-1.7 v -33.6 c 0,-9.2 -3.5,-12.4 -10.5,-12.4 -6.2,0 -11.5,2.9 -14.6,5.8 v 40.1 h -9.6 v -78.6 l 9.6,-1.5 v 32.8 c 4.9,-4.9 11.2,-7.8 17.9,-7.8 10.3,0 16.7,6.9 16.7,18.4 v 36.7 h -9.5 z m 46.3,1.7 c -15.2,0 -25.8,-11.2 -25.8,-28.4 0,-17.1 11,-28.6 26.3,-28.6 15.3,0 25.6,11.3 25.6,28.6 0.1,17.1 -11.1,28.4 -26.1,28.4 z m 0.1,-48.4 c -10.6,0 -16.4,8.3 -16.4,19.8 0,11.4 6.2,19.9 16.7,19.9 10.6,0 16.4,-8.2 16.4,-19.7 0,-11.3 -6.2,-20 -16.7,-20 z m 60.1,48.4 c -15.2,0 -25.8,-11.2 -25.8,-28.4 0,-17.1 11,-28.6 26.3,-28.6 15.3,0 25.6,11.3 25.6,28.6 0.2,17.1 -11,28.4 -26.1,28.4 z m 0.1,-48.4 c -10.6,0 -16.4,8.3 -16.4,19.8 0,11.4 6.2,19.9 16.7,19.9 10.6,0 16.4,-8.2 16.4,-19.7 0,-11.3 -6.2,-20 -16.7,-20 z m 37.4,46.7 v -78.6 l 9.6,-1.5 v 80.1 z"
   id="path55" />
  
</svg>
