<?xml version="1.0" encoding="UTF-8"?>
<svg width="631.890169px" height="170px" viewBox="0 0 631.890169 170" version="1.1" xmlns="http://www.w3.org/2000/svg" xmlns:xlink="http://www.w3.org/1999/xlink">
    <title>Group</title>
    <g id="Page-1" stroke="none" stroke-width="1" fill="none" fill-rule="evenodd">
        <g id="Group" transform="translate(0.0001, 0)">
            <path d="M146.859336,15.9241619 L146.860085,53.1 C146.860085,56.37 146.710085,56.48 143.510085,56.53 C136.930085,56.65 130.360085,56.84 123.780085,56.9 C121.240085,56.92 120.120085,58.24 119.970085,60.55 C119.850085,62.38 119.730085,64.24 119.960085,66.04 C120.248085,68.288 121.982485,69.4032 123.663125,70.46592 L124.081297,70.7311319 C124.358174,70.9080444 124.630085,71.086 124.890085,71.27 C126.150085,72.17 126.390085,72.65 125.670085,73.99 C123.630085,77.82 121.780085,81.75 119.780085,85.61 C118.770085,87.56 117.650085,89.45 116.520085,91.33 C115.780085,92.57 114.840085,92.31 114.120085,91.34 C112.940085,89.74 111.750085,88.12 110.780085,86.39 C108.830085,82.9 107.030085,79.31 105.130085,75.79 C104.997228,75.5457143 104.816616,75.3308163 104.622884,75.1232653 L104.22819,74.7114286 C104.097636,74.5730612 103.971514,74.4314286 103.860085,74.28 C103.450085,73.73 103.110085,73.13 102.740085,72.55 C103.380085,72.23 103.990085,71.71 104.650085,71.64 C106.620085,71.43 107.430085,70.34 107.420085,68.48 C107.420085,65.65 107.450085,62.81 107.370085,59.98 C107.320085,58.2 106.560085,56.9 104.530085,56.9 C95.1300853,56.9 85.7300853,56.92 76.3400853,56.93 C74.2500853,56.93 73.3400853,58.07 73.3300853,60.08 C73.3300853,61.33 73.2900853,62.58 73.2800853,63.83 C73.2800853,68.42 75.3800853,71 80.0600853,71.57 C82.2600853,71.84 82.6600853,73.43 83.6000853,74.86 C85.8300853,78.24 88.3600853,81.43 90.5800853,84.82 C92.9600853,88.46 95.0600853,92.28 97.4100853,95.95 C98.0600853,96.9666667 98.7334186,97.9677778 99.4149001,98.9633333 L101.468604,101.943333 C102.151196,102.937778 102.826752,103.936667 103.480085,104.95 C103.990085,105.74 104.330085,106.79 104.340085,107.72 C104.430085,112.13 104.340085,116.55 104.400085,120.97 C104.420085,122.78 103.700085,123.50011 101.880085,123.49 C92.5500853,123.44 83.2100853,123.45 73.8800853,123.49 C72.2500853,123.49 71.3700853,122.97 71.4000853,121.2 C71.4500853,118.37 71.4400853,115.53 71.4000853,112.7 C71.3800853,111.21 72.0600853,110.59 73.5300853,110.63 C75.1100853,110.67 76.7000853,110.6 78.2800853,110.61 C80.4300853,110.61 81.2400853,109.48 81.1200853,107.43 C81.0000853,105.52 80.9700853,103.6 80.8900853,101.69 C80.7400853,98.17 78.7500853,96.17 75.2500853,96.02 C71.6359676,95.86 71.4145143,95.8505882 71.4009666,92.6402646 L71.4000853,92 C71.4000853,82.08 71.4200853,72.17 71.4000853,62.25 C71.4000853,58.02 70.2800853,56.94 66.0400853,56.92 C63.2200853,56.92 60.3900853,56.98 57.5700853,56.93 C55.6500853,56.9 54.3600853,57.6 53.2300853,59.26 C51.5675853,61.6975 49.8152415,64.0685938 48.0487376,66.431875 L45.9269798,69.2678125 C45.5738353,69.7410938 45.2213353,70.215 44.8700853,70.69 C41.3700853,75.42 37.8200853,80.12 34.3600853,84.88 C33.8508545,85.58 33.33689,86.2773964 32.8212141,86.9739736 L31.2720743,89.0630314 C28.9497302,92.198284 26.6539314,95.3530769 24.6600853,98.69 C22.8200853,101.77 23.2300853,105.55 24.7400853,108.76 C25.2200853,109.78 27.3400853,110.51 28.7300853,110.55 C34.7986567,110.704286 40.8672281,110.660204 46.9420969,110.650758 L50.4093604,110.650416 C53.9173939,110.659213 53.8776324,110.846038 53.5600853,114.57 C53.3700853,116.79 53.4200853,119.03 53.4200853,121.27 C53.4200853,122.84 52.7000853,123.51 51.1200853,123.50011 C43.2900853,123.46 35.4500853,123.57 27.6200853,123.4 C23.5600853,123.31 21.9200853,121.34 21.9200853,117.33 L21.9200853,81.08 C21.9200853,76.8 19.5800853,74.93 15.5400853,76.33 C11.7600853,77.63 8.07008526,79.23 4.41008526,80.86 C2.19008526,81.85 1.45008526,81.39 1.44008526,78.55 C1.42008526,65.22 1.44008526,51.88 1.43008526,38.55 L1.43008526,16.3 C1.43008526,12.78 1.60008526,12.6 5.08008526,12.6 C28.1600853,12.59 51.2500853,12.6 74.3300853,12.6 L74.3200853,12.55 L143.494771,12.5507501 C146.622712,12.5639539 146.846147,12.7877421 146.859336,15.9241619 Z M13.8900853,49 C7.53881064,49 2.39008526,54.1487254 2.39008526,60.5 C2.39008526,66.8512746 7.53881064,72 13.8900853,72 C20.2413599,72 25.3900853,66.8512746 25.3900853,60.5 C25.3900853,54.1487254 20.2413599,49 13.8900853,49 Z" id="Combined-Shape" fill="#C3852B" fill-rule="nonzero"></path>
            <path d="M74.1600853,160.02 C51.3300853,160.02 28.5000853,160.02 5.66008526,160.02 C4.58008526,160.02 3.49008526,160.03 2.41008526,159.94 C0.860085264,159.8 -0.00991473601,158.98 0,157.33 C0.030085264,151.33 -0.059914736,145.33 0.090085264,139.33 C0.170085264,136.29 1.08008526,135.59 4.14008526,135.59 C50.8000853,135.59 97.4700853,135.59 144.130085,135.59 C147.470085,135.59 148.710085,136.67 148.770085,140.02 C148.880085,145.68 148.780085,151.35 148.820085,157.02 C148.830085,158.89 147.910085,159.8 146.140085,159.94 C145.150085,160.02 144.140085,160.02 143.140085,160.02 C120.140085,160.02 97.1400853,160.02 74.1400853,160.02 L74.1600853,160.02 Z" id="Path" fill="#275F7B" fill-rule="nonzero"></path>
            <path d="M146.860085,97.34 C146.860085,104.67 146.880085,111.99 146.860085,119.32 C146.840085,123.1 146.440085,123.46 142.710085,123.47 C139.710085,123.47 136.690085,123.69 133.730085,123.4 C130.700085,123.1 127.650085,122.52 124.750085,121.61 C123.770085,121.3 122.700085,119.62 122.610085,118.48 C122.330085,115.01 122.260085,111.47 122.610085,108.01 C122.800085,106.15 123.810085,104.26 124.840085,102.63 C127.870085,97.82 131.150085,93.18 134.210085,88.39 C137.160085,83.79 139.960085,79.1 142.830085,74.45 C143.130085,73.96 143.350085,73.31 143.800085,73.03 C144.440085,72.62 145.290085,72.2 145.960085,72.31 C146.350085,72.37 146.790085,73.48 146.810085,74.12 C146.900085,77.11 146.860085,80.11 146.860085,83.11 C146.860085,87.86 146.860085,92.6 146.860085,97.35 L146.860085,97.34 Z" id="Path" fill="#C3852B" fill-rule="nonzero"></path>
            <path d="M4.39008526,98.98 C4.39008526,106.19 4.39008526,113.4 4.38008526,120.61 C4.38008526,121.18 4.32008526,121.83 4.05008526,122.3 C3.79008526,122.73 3.19008526,123.22 2.77008526,123.2 C2.36008526,123.18 1.78008526,122.6 1.63008526,122.15 C1.40008526,121.46 1.44008526,120.67 1.44008526,119.93 C1.44008526,112.19 1.44008526,104.45 1.44008526,96.71 C1.44008526,96.13 1.35008526,95.5 1.53008526,94.98 C1.69008526,94.51 2.12008526,93.86 2.51008526,93.81 C2.90008526,93.75 3.63008526,94.24 3.78008526,94.64 C4.27008526,96.04 4.58008526,97.51 4.95008526,98.96 L4.39008526,99 L4.39008526,98.98 Z" id="Path" fill="#C3852B" fill-rule="nonzero"></path>
            <path d="M53.2900853,85.06 C53.2900853,88.29 53.3500853,91.53 53.2200853,94.76 C53.2000853,95.18 52.1700853,95.89 51.6200853,95.8801045 C49.7600853,95.85 47.9100853,95.55 46.0600853,95.35 C46.6600853,93.91 47.0800853,92.36 47.8900853,91.06 C49.2500853,88.88 50.8700853,86.86 52.3800853,84.77 L53.3000853,85.06 L53.2900853,85.06 Z" id="Path" fill="#C3852B" fill-rule="nonzero"></path>
            <text id="Innovations-for-Yout" font-family="OpenSansRoman-SemiBold, Open Sans" font-size="84" font-weight="500" line-spacing="85" letter-spacing="-1" fill="#C3852B">
                <tspan x="162.890085" y="90">Innovations</tspan>
                <tspan x="162.890085" y="175">for Youth</tspan>
            </text>
        </g>
    </g>
</svg>