<?xml version="1.0" encoding="UTF-8"?>
<svg width="114px" height="114px" viewBox="0 0 114 114" version="1.1" xmlns="http://www.w3.org/2000/svg" xmlns:xlink="http://www.w3.org/1999/xlink">
    <title>Logo - svg Copy 2</title>
    <g id="Logo---svg-Copy-2" stroke="none" stroke-width="1" fill="none" fill-rule="evenodd">
        <g id="OCTO-Logo-Retraced-01" transform="translate(3, 3)" stroke="#013362">
            <polygon id="Path" stroke-width="3" points="0 77.04 0 31.91 31.91 0 77.04 0 108.96 31.91 108.96 77.04 77.04 108.96 31.91 108.96"></polygon>
            <polyline id="Path" points="17.28 22.33 22.93 22.38 22.93 16 31.17 16 31.18 29.47 2.47 29.47"></polyline>
            <circle id="Oval" fill="#013362" fill-rule="nonzero" cx="16.26" cy="22.32" r="1.15"></circle>
            <polyline id="Path" points="1.02 36.16 24.89 36.21 24.89 40.55 36.21 40.55 36.21 47.24"></polyline>
            <polyline id="Path" points="16.25 36.2 16.26 70.72 44.48 70.72 44.48 95.35 57.54 95.35 57.54 78.14 50.89 78.14 50.89 87.43"></polyline>
            <circle id="Oval" fill="#013362" fill-rule="nonzero" cx="50.91" cy="88.57" r="1.15"></circle>
            <polyline id="Path" points="63.3 78.42 63.3 95.27 70.06 95.27 70.06 85.07"></polyline>
            <polyline id="Path" points="5.52 81.93 5.52 41.4 10.4 41.4 10.4 70.26"></polyline>
            <circle id="Oval" fill="#013362" fill-rule="nonzero" cx="16.25" cy="81.47" r="1.15"></circle>
            <circle id="Oval" fill="#013362" fill-rule="nonzero" cx="38.02" cy="93.12" r="1.15"></circle>
            <circle id="Oval" fill="#013362" fill-rule="nonzero" cx="61.66" cy="17.42" r="1.15"></circle>
            <circle id="Oval" fill="#013362" fill-rule="nonzero" cx="10.38" cy="70.65" r="1.15"></circle>
            <circle id="Oval" fill="#013362" fill-rule="nonzero" cx="49.84" cy="17.35" r="1.15"></circle>
            <circle id="Oval" fill="#013362" fill-rule="nonzero" cx="79.56" cy="26.24" r="1.15"></circle>
            <circle id="Oval" fill="#013362" fill-rule="nonzero" cx="98.28" cy="28.08" r="1.15"></circle>
            <polyline id="Path" points="10.36 86.1 10.36 76.05 38.02 76.05 38.02 91.95"></polyline>
            <polyline id="Path" points="21.13 96.66 21.13 81.45 17.4 81.47"></polyline>
            <polyline id="Path" points="26.65 103.33 26.65 81.48 32.47 81.45 32.47 108.55"></polyline>
            <polyline id="Path" points="37.87 107.99 37.87 101.32 84.69 101.32"></polyline>
            <polyline id="Path" points="44.28 64.78 22.92 64.77 22.92 54.66 16.74 54.66"></polyline>
            <polyline id="Path" points="44.47 46.05 44.47 35.54 36.96 35.54 36.96 0.73"></polyline>
            <polyline id="Path" points="42.55 0.73 42.55 24.18 56.24 24.18 56.24 12.56 67.31 12.56 67.31 38.1"></polyline>
            <polyline id="Path" points="73.29 35.67 73.29 6.97 49.82 6.97 49.82 16.17"></polyline>
            <polyline id="Path" points="36.79 29.92 61.65 29.92 61.65 18.58"></polyline>
            <polyline id="Path" points="87.51 9.9 79.55 9.9 79.55 25.13"></polyline>
            <polyline id="Path" points="92.6 15.29 85.76 15.29 85.76 28.16 92.1 28.16 92.1 45.92"></polyline>
            <polyline id="Path" points="107.96 38.28 98.24 38.28 98.27 29.23"></polyline>
            <line x1="98.52" y1="21.6" x2="86.16" y2="21.6" id="Path"></line>
            <polyline id="Path" points="31.25 0.03 31.25 9.55 22.86 9.55"></polyline>
            <polyline id="Path" stroke-width="3" points="108.72 45.35 88.92 45.43 82.72 33.57 75.88 33.49 70.06 38.75 51.52 38.68 46.18 46.61 29.21 48.73 33.29 60.28 43.35 64.76 60.87 74.51 83.89 101.14"></polyline>
        </g>
    </g>
</svg>